# Blender v2.92.0 OBJ File: 'M3.blend'
# www.blender.org
mtllib M3.mtl
o Cube
v 3.114964 1.004627 -1.984621
v 3.005132 -1.000000 -1.914645
v 3.114964 1.004627 1.984621
v 3.005132 -1.000000 1.914645
v -3.114964 1.004627 -1.984621
v -3.005132 -1.000000 -1.914645
v -3.114964 1.004627 1.984621
v -3.005132 -1.000000 1.914645
v 3.114964 0.742173 -1.984621
v -3.114964 0.742173 1.984621
v 3.114964 0.742173 1.984621
v -3.114964 0.742173 -1.984621
v 3.005132 0.746800 -1.914645
v 3.005132 0.746800 1.914645
v -3.005132 0.746800 -1.914645
v -3.005132 0.746800 1.914645
vt 0.625000 0.500000
vt 0.875000 0.500000
vt 0.875000 0.750000
vt 0.625000 0.750000
vt 0.593350 0.750000
vt 0.625000 1.000000
vt 0.593350 1.000000
vt 0.593350 0.000000
vt 0.625000 0.000000
vt 0.625000 0.250000
vt 0.593350 0.250000
vt 0.125000 0.500000
vt 0.375000 0.500000
vt 0.375000 0.750000
vt 0.125000 0.750000
vt 0.593350 0.500000
vt 0.593350 0.250000
vt 0.593350 0.500000
vt 0.593350 0.750000
vt 0.593350 0.000000
vt 0.593350 1.000000
vt 0.375000 1.000000
vt 0.375000 0.000000
vt 0.375000 0.250000
vn 0.0000 1.0000 0.0000
vn 0.0000 0.0000 1.0000
vn -1.0000 0.0000 0.0000
vn 0.0000 -1.0000 0.0000
vn 1.0000 0.0000 0.0000
vn 0.0000 0.0000 -1.0000
vn 0.0000 -0.9978 0.0660
vn -0.0421 -0.9991 0.0000
vn 0.0421 -0.9991 0.0000
vn 0.0000 -0.9978 -0.0660
usemtl Material.001
s off
f 1/1/1 5/2/1 7/3/1 3/4/1
f 11/5/2 3/4/2 7/6/2 10/7/2
f 10/8/3 7/9/3 5/10/3 12/11/3
f 6/12/4 2/13/4 4/14/4 8/15/4
f 9/16/5 1/1/5 3/4/5 11/5/5
f 12/11/6 5/10/6 1/1/6 9/16/6
f 15/17/7 12/11/7 9/16/7 13/18/7
f 13/18/8 9/16/8 11/5/8 14/19/8
f 16/20/9 10/8/9 12/11/9 15/17/9
f 14/19/10 11/5/10 10/7/10 16/21/10
f 4/14/2 14/19/2 16/21/2 8/22/2
f 8/23/3 16/20/3 15/17/3 6/24/3
f 2/13/5 13/18/5 14/19/5 4/14/5
f 6/24/6 15/17/6 13/18/6 2/13/6
o 큐브
v -3.114853 0.950000 0.794451
v -3.114853 1.250000 0.794451
v -3.114853 0.950000 0.494451
v -3.114853 1.250000 0.494451
v 3.114853 0.950000 0.794451
v 3.114853 1.250000 0.794451
v 3.114853 0.950000 0.494451
v 3.114853 1.250000 0.494451
vt 0.375000 0.000000
vt 0.625000 0.000000
vt 0.625000 0.250000
vt 0.375000 0.250000
vt 0.625000 0.500000
vt 0.375000 0.500000
vt 0.625000 0.750000
vt 0.375000 0.750000
vt 0.625000 1.000000
vt 0.375000 1.000000
vt 0.125000 0.500000
vt 0.125000 0.750000
vt 0.875000 0.500000
vt 0.875000 0.750000
vn -1.0000 0.0000 0.0000
vn 0.0000 0.0000 -1.0000
vn 1.0000 0.0000 0.0000
vn 0.0000 0.0000 1.0000
vn 0.0000 -1.0000 0.0000
vn 0.0000 1.0000 0.0000
usemtl Material
s off
f 17/25/11 18/26/11 20/27/11 19/28/11
f 19/28/12 20/27/12 24/29/12 23/30/12
f 23/30/13 24/29/13 22/31/13 21/32/13
f 21/32/14 22/31/14 18/33/14 17/34/14
f 19/35/15 23/30/15 21/32/15 17/36/15
f 24/29/16 20/37/16 18/38/16 22/31/16
o 큐브.001
v -3.114853 0.950000 -1.682724
v -3.114853 1.250000 -1.682724
v -3.114853 0.950000 -1.982724
v -3.114853 1.250000 -1.982724
v 3.114853 0.950000 -1.682724
v 3.114853 1.250000 -1.682724
v 3.114853 0.950000 -1.982724
v 3.114853 1.250000 -1.982724
vt 0.375000 0.000000
vt 0.625000 0.000000
vt 0.625000 0.250000
vt 0.375000 0.250000
vt 0.625000 0.500000
vt 0.375000 0.500000
vt 0.625000 0.750000
vt 0.375000 0.750000
vt 0.625000 1.000000
vt 0.375000 1.000000
vt 0.125000 0.500000
vt 0.125000 0.750000
vt 0.875000 0.500000
vt 0.875000 0.750000
vn -1.0000 0.0000 0.0000
vn 0.0000 0.0000 -1.0000
vn 1.0000 0.0000 0.0000
vn 0.0000 0.0000 1.0000
vn 0.0000 -1.0000 0.0000
vn 0.0000 1.0000 0.0000
usemtl Material
s off
f 25/39/17 26/40/17 28/41/17 27/42/17
f 27/42/18 28/41/18 32/43/18 31/44/18
f 31/44/19 32/43/19 30/45/19 29/46/19
f 29/46/20 30/45/20 26/47/20 25/48/20
f 27/49/21 31/44/21 29/46/21 25/50/21
f 32/43/22 28/51/22 26/52/22 30/45/22
o 큐브.002
v -3.114853 0.950000 -0.552582
v -3.114853 1.250000 -0.552582
v -3.114853 0.950000 -0.852582
v -3.114853 1.250000 -0.852582
v 3.114853 0.950000 -0.552582
v 3.114853 1.250000 -0.552582
v 3.114853 0.950000 -0.852582
v 3.114853 1.250000 -0.852582
vt 0.375000 0.000000
vt 0.625000 0.000000
vt 0.625000 0.250000
vt 0.375000 0.250000
vt 0.625000 0.500000
vt 0.375000 0.500000
vt 0.625000 0.750000
vt 0.375000 0.750000
vt 0.625000 1.000000
vt 0.375000 1.000000
vt 0.125000 0.500000
vt 0.125000 0.750000
vt 0.875000 0.500000
vt 0.875000 0.750000
vn -1.0000 0.0000 0.0000
vn 0.0000 0.0000 -1.0000
vn 1.0000 0.0000 0.0000
vn 0.0000 0.0000 1.0000
vn 0.0000 -1.0000 0.0000
vn 0.0000 1.0000 0.0000
usemtl Material
s off
f 33/53/23 34/54/23 36/55/23 35/56/23
f 35/56/24 36/55/24 40/57/24 39/58/24
f 39/58/25 40/57/25 38/59/25 37/60/25
f 37/60/26 38/59/26 34/61/26 33/62/26
f 35/63/27 39/58/27 37/60/27 33/64/27
f 40/57/28 36/65/28 34/66/28 38/59/28
o 큐브.003
v -3.114853 0.950000 1.980610
v -3.114853 1.250000 1.980610
v -3.114853 0.950000 1.680610
v -3.114853 1.250000 1.680610
v 3.114853 0.950000 1.980610
v 3.114853 1.250000 1.980610
v 3.114853 0.950000 1.680610
v 3.114853 1.250000 1.680610
vt 0.375000 0.000000
vt 0.625000 0.000000
vt 0.625000 0.250000
vt 0.375000 0.250000
vt 0.625000 0.500000
vt 0.375000 0.500000
vt 0.625000 0.750000
vt 0.375000 0.750000
vt 0.625000 1.000000
vt 0.375000 1.000000
vt 0.125000 0.500000
vt 0.125000 0.750000
vt 0.875000 0.500000
vt 0.875000 0.750000
vn -1.0000 0.0000 0.0000
vn 0.0000 0.0000 -1.0000
vn 1.0000 0.0000 0.0000
vn 0.0000 0.0000 1.0000
vn 0.0000 -1.0000 0.0000
vn 0.0000 1.0000 0.0000
usemtl Material
s off
f 41/67/29 42/68/29 44/69/29 43/70/29
f 43/70/30 44/69/30 48/71/30 47/72/30
f 47/72/31 48/71/31 46/73/31 45/74/31
f 45/74/32 46/73/32 42/75/32 41/76/32
f 43/77/33 47/72/33 45/74/33 41/78/33
f 48/71/34 44/79/34 42/80/34 46/73/34
